<?xml version="1.0" standalone="no"?>
<!DOCTYPE svg PUBLIC "-//W3C//DTD SVG 20010904//EN"
 "http://www.w3.org/TR/2001/REC-SVG-20010904/DTD/svg10.dtd">
<svg version="1.0" xmlns="http://www.w3.org/2000/svg"
 width="16.000000pt" height="16.000000pt" viewBox="0 0 16.000000 16.000000"
 preserveAspectRatio="xMidYMid meet">
<metadata>
Created by potrace 1.11, written by Peter Selinger 2001-2013
</metadata>
<g transform="translate(0.000000,16.000000) scale(0.002286,-0.002286)"
fill="#000000" stroke="none">
<path d="M700 3500 l0 -2800 2800 0 2800 0 0 1868 0 1867 -933 932 -932 933
-1867 0 -1868 0 0 -2800z m2736 2752 c-3 -5 -174 -432 -380 -950 l-376 -941
-960 -1773 c-844 -1559 -1042 -1920 -931 -1700 16 31 410 867 876 1857 l847
1800 448 835 c246 459 452 845 459 858 6 12 14 22 17 22 3 0 3 -4 0 -8z m1848
-1003 c-10 -12 -389 -429 -840 -926 l-822 -905 -1228 -1140 c-676 -628 -1317
-1222 -1424 -1322 l-195 -181 296 310 c163 171 765 803 1338 1405 l1042 1094
709 646 c389 356 752 687 806 737 306 283 367 336 318 282z m941 -1388 c-22
-19 -1845 -1197 -1900 -1226 -101 -55 -3409 -1817 -3430 -1827 -79 -40 187
123 1640 1002 l1640 994 720 374 c396 205 848 439 1005 519 157 80 294 152
305 159 22 16 34 19 20 5z m-65 -1691 c-25 -10 -247 -95 -495 -189 l-450 -169
-2100 -516 c-1155 -284 -2111 -518 -2125 -521 -58 -11 151 51 2050 605 l1995
582 565 113 c311 63 574 114 585 114 11 0 0 -8 -25 -19z m-5203 -1406 c-3 -3
-12 -4 -19 -1 -8 3 -5 6 6 6 11 1 17 -2 13 -5z"/>
</g>
</svg>
