<svg xmlns="http://www.w3.org/2000/svg" style="width:0;height:0"><symbol viewBox="0 0 700.000000 700.000000" id="icon--safari-pinned-tab"> <metadata> Created by potrace 1.11, written by Peter Selinger 2001-2013 </metadata> <g transform="translate(0.000000,700.000000) scale(0.100000,-0.100000)" fill="#000000" stroke="none"> <path d="M3188 6105 c-1212 -153 -2152 -1098 -2293 -2304 -19 -161 -19 -441 0
-602 141 -1211 1093 -2163 2304 -2304 187 -22 363 -20 437 5 158 54 270 188
293 350 17 127 -15 233 -109 360 -88 119 -120 229 -101 348 26 165 132 292
288 349 61 22 76 23 346 23 314 1 483 10 602 35 597 123 1053 599 1150 1200
19 121 19 351 0 497 -124 944 -878 1724 -1911 1978 -224 55 -362 72 -644 75
-176 3 -288 0 -362 -10z m-290 -583 c316 -99 412 -493 178 -728 -148 -147
-379 -167 -553 -48 -300 206 -224 670 126 778 66 21 178 19 249 -2z m1449 3
c166 -49 286 -186 312 -355 41 -263 -162 -500 -428 -500 -126 0 -221 39 -307
124 -134 135 -168 322 -89 494 70 153 221 250 391 251 39 1 93 -6 121 -14z
m-2321 -1171 c127 -36 238 -146 285 -282 23 -67 25 -186 4 -255 -64 -212 -269
-343 -484 -310 -255 40 -423 293 -357 538 65 246 303 378 552 309z m3209 -1
c227 -71 356 -316 285 -544 -95 -308 -474 -408 -713 -189 -90 83 -137 191
-137 321 0 293 283 499 565 412z"/> </g> </symbol><symbol viewBox="0 0 24 24" id="icon--progrees-circle"> <path d="m 12,4 c 4.4,0 8,3.6 8,8 0,4.4 -3.6,8 -8,8 C 7.6,20 4,16.4 4,12 3.3,11.4 2.7,11.2 2,12 2,17.5 6.5,22 12,22 17.5,22 22,17.5 22,12 22,6.5 17.5,2 12,2 11.2,2.7 11.4,3.3 12,4 Z"> <animateTransform xmlns="http://www.w3.org/2000/svg" attributeName="transform" type="rotate" values="0 12 12;180 12 12;360 12 12;" keyTimes="0;0.5;1" dur="1s" repeatCount="indefinite" begin="0s"/> </path> </symbol><symbol viewBox="0 0 24 24" id="icon--logo"> <sodipodi:namedview pagecolor="#ffffff" bordercolor="#666666" borderopacity="1" objecttolerance="10" gridtolerance="10" guidetolerance="10" inkscape:pageopacity="0" inkscape:pageshadow="2" inkscape:window-width="640" inkscape:window-height="480" id="icon--logo-namedview6" showgrid="false" inkscape:zoom="26.4375" inkscape:cx="8.3816834" inkscape:cy="10.294189" inkscape:current-layer="svg2" showguides="true" inkscape:guide-bbox="true"> <sodipodi:guide id="icon--logo-guide4136" orientation="0,24" position="0,0"/> <sodipodi:guide id="icon--logo-guide4138" orientation="-24,0" position="24,0"/> <sodipodi:guide id="icon--logo-guide4140" orientation="0,-24" position="24,24"/> <sodipodi:guide id="icon--logo-guide4142" orientation="24,0" position="0,24"/> <sodipodi:guide id="icon--logo-guide4159" position="0,24.0" orientation="0,24.0"/> <sodipodi:guide id="icon--logo-guide4161" position="24.0,0" orientation="0,24.0"/> <sodipodi:guide id="icon--logo-guide4163" position="0,24.0" orientation="24.0,0"/> <sodipodi:guide orientation="0,24.0" position="0,21.6" id="icon--logo-guide4328"/> <sodipodi:guide orientation="0,24.0" position="0,2.4" id="icon--logo-guide4330"/> <sodipodi:guide orientation="24.0,0" position="2.4,0" id="icon--logo-guide4332"/> <sodipodi:guide orientation="24.0,0" position="21.6,0" id="icon--logo-guide4334"/> <sodipodi:guide orientation="0,19.2" position="0,8.8" id="icon--logo-guide4336"/> <sodipodi:guide orientation="0,19.2" position="0,15.2" id="icon--logo-guide4338"/> <sodipodi:guide orientation="19.2,0" position="8.8,0" id="icon--logo-guide4340"/> <sodipodi:guide orientation="19.2,0" position="15.2,0" id="icon--logo-guide4342"/> <sodipodi:guide id="icon--logo-guide4601" position="24.0,0" orientation="0.525321988818,0.525321988818"/> <sodipodi:guide id="icon--logo-guide4603" position="24.0,24.0" orientation="-0.850903524534,0.850903524534"/> <sodipodi:guide position="21.6,15.2" orientation="0.70710678,0.70710678" id="icon--logo-guide4637"/> <sodipodi:guide position="2.4,2.4" orientation="-0.5,0.8660254" id="icon--logo-guide4674"/> <sodipodi:guide position="2.4,2.4" orientation="-0.25881905,0.96592583" id="icon--logo-guide4676"/> </sodipodi:namedview>  <metadata id="icon--logo-metadata12"> <rdf:RDF> <cc:Work rdf:about=""> <dc:format>image/svg+xml</dc:format> <dc:type rdf:resource="http://purl.org/dc/dcmitype/StillImage"/> <dc:title/> </cc:Work> </rdf:RDF> </metadata> <path d="m 2.4,21.6 16,-16 -3.2,-3.2 -3.171631,0 L 8.8,8.8 Z" id="icon--logo-path4686" inkscape:connector-curvature="0"/> <g id="icon--logo-g4645"> <path inkscape:connector-curvature="0" id="icon--logo-path4639" d="M 2.4,21.6 8.8,8.8 12,12 18.4,5.6 15.2,2.4 2.4,2.4 Z"/> <path sodipodi:nodetypes="cccc" inkscape:connector-curvature="0" id="icon--logo-path4641" d="M 12.028369,2.4 15.2,2.4 8.8,8.8 Z"/> <path inkscape:connector-curvature="0" id="icon--logo-path4643" d="M 2.4,21.6 12.028369,2.4 2.4,2.4 Z"/> </g> <path d="m 2.4,21.6 19.2,-11.085125 0,5.9405 z" id="icon--logo-path4682" inkscape:connector-curvature="0"/> <path d="M 2.4,21.6 21.6,10.514875 21.6,8.8 18.4,5.6 Z" id="icon--logo-path4684" inkscape:connector-curvature="0"/> <path d="M 2.4,21.6 21.6,16.455375 21.6,21.6 Z" id="icon--logo-path4688" inkscape:connector-curvature="0"/> </symbol><symbol viewBox="0 0 24 24" id="icon--add"> <path d="M0 0h24v24H0z" fill="none"/> <path d="M13 7h-2v4H7v2h4v4h2v-4h4v-2h-4V7zm-1-5C6.48 2 2 6.48 2 12s4.48 10 10 10 10-4.48 10-10S17.52 2 12 2zm0 18c-4.41 0-8-3.59-8-8s3.59-8 8-8 8 3.59 8 8-3.59 8-8 8z"/> </symbol><symbol viewBox="0 0 24 24" id="icon--github"><path fill="none" d="M0 0h24v24H0z"/><path fill-rule="evenodd" d="M12 2.5c-5.52 0-10 4.47-10 10 0 4.4 2.87 8.16 6.84 9.48.5.1.68-.2.68-.48v-1.7c-2.8.6-3.38-1.34-3.38-1.34C5.68 17.3 5.04 17 5.04 17c-.92-.62.06-.6.06-.6 1 .06 1.53 1.02 1.53 1.02.9 1.53 2.34 1.1 2.9.83.1-.65.36-1.1.64-1.34-2.22-.2-4.55-1.1-4.55-4.9 0-1.1.4-2 1.03-2.7-.1-.24-.45-1.25.1-2.63 0 0 .84-.27 2.75 1.03.8-.24 1.65-.35 2.5-.35.85 0 1.7.1 2.5.34 1.9-1.3 2.75-1.05 2.75-1.05.55 1.38.2 2.4.1 2.65.64.7 1.03 1.58 1.03 2.67 0 3.84-2.34 4.7-4.57 4.94.4.3.7.94.7 1.88v2.74c0 .28.2.6.7.5 3.98-1.33 6.8-5.08 6.8-9.5 0-5.5-4.44-10-10-10"/></symbol><symbol viewBox="0 0 24 24" id="icon--link"><path d="M16,6H13V7.9H16C18.26,7.9 20.1,9.73 20.1,12A4.1,4.1 0 0,1 16,16.1H13V18H16A6,6 0 0,0 22,12C22,8.68 19.31,6 16,6M3.9,12C3.9,9.73 5.74,7.9 8,7.9H11V6H8A6,6 0 0,0 2,12A6,6 0 0,0 8,18H11V16.1H8C5.74,16.1 3.9,14.26 3.9,12M8,13H16V11H8V13Z"/></symbol><symbol viewBox="0 0 24 24" id="icon--move-left"> <path d="M15.41 16.09l-4.58-4.59 4.58-4.59L14 5.5l-6 6 6 6z"/> <path d="M0-.5h24v24H0z" fill="none"/> </symbol><symbol viewBox="0 0 24 24" id="icon--move-right"> <path d="M8.59 16.34l4.58-4.59-4.58-4.59L10 5.75l6 6-6 6z"/> <path d="M0-.25h24v24H0z" fill="none"/> </symbol><symbol viewBox="0 0 24 24" id="icon--move"> <path d="M6.99 11L3 15l3.99 4v-3H14v-2H6.99v-3zM21 9l-3.99-4v3H10v2h7.01v3L21 9z"/> <path d="M0 0h24v24H0z" fill="none"/> </symbol><symbol viewBox="0 0 24 24" id="icon--palette"> <metadata id="icon--palette-metadata12"> <rdf:RDF> <cc:Work rdf:about=""> <dc:format>image/svg+xml</dc:format> <dc:type rdf:resource="http://purl.org/dc/dcmitype/StillImage"/> <dc:title/> </cc:Work> </rdf:RDF> </metadata> <path d="M12 3c-4.97 0-9 4.03-9 9s4.03 9 9 9c.83 0 1.5-.67 1.5-1.5 0-.39-.15-.74-.39-1.01-.23-.26-.38-.61-.38-.99 0-.83.67-1.5 1.5-1.5H16c2.76 0 5-2.24 5-5 0-4.42-4.03-8-9-8zm-5.5 9c-.83 0-1.5-.67-1.5-1.5S5.67 9 6.5 9 8 9.67 8 10.5 7.33 12 6.5 12zm3-4C8.67 8 8 7.33 8 6.5S8.67 5 9.5 5s1.5.67 1.5 1.5S10.33 8 9.5 8zm5 0c-.83 0-1.5-.67-1.5-1.5S13.67 5 14.5 5s1.5.67 1.5 1.5S15.33 8 14.5 8zm3 4c-.83 0-1.5-.67-1.5-1.5S16.67 9 17.5 9s1.5.67 1.5 1.5-.67 1.5-1.5 1.5z"/> </symbol><symbol viewBox="0 0 24 24" id="icon--remove"><path d="M12,20C7.59,20 4,16.41 4,12C4,7.59 7.59,4 12,4C16.41,4 20,7.59 20,12C20,16.41 16.41,20 12,20M12,2C6.47,2 2,6.47 2,12C2,17.53 6.47,22 12,22C17.53,22 22,17.53 22,12C22,6.47 17.53,2 12,2M14.59,8L12,10.59L9.41,8L8,9.41L10.59,12L8,14.59L9.41,16L12,13.41L14.59,16L16,14.59L13.41,12L16,9.41L14.59,8Z"/></symbol><symbol viewBox="0 0 24 24" id="icon--share"><path d="M18,16.08C17.24,16.08 16.56,16.38 16.04,16.85L8.91,12.7C8.96,12.47 9,12.24 9,12C9,11.76 8.96,11.53 8.91,11.3L15.96,7.19C16.5,7.69 17.21,8 18,8A3,3 0 0,0 21,5A3,3 0 0,0 18,2A3,3 0 0,0 15,5C15,5.24 15.04,5.47 15.09,5.7L8.04,9.81C7.5,9.31 6.79,9 6,9A3,3 0 0,0 3,12A3,3 0 0,0 6,15C6.79,15 7.5,14.69 8.04,14.19L15.16,18.34C15.11,18.55 15.08,18.77 15.08,19C15.08,20.61 16.39,21.91 18,21.91C19.61,21.91 20.92,20.61 20.92,19A2.92,2.92 0 0,0 18,16.08Z"/></symbol><symbol viewBox="0 0 24 24" id="icon--tetrad"><path fill="none" d="M0 0h24v24H0z"/><path d="M14.7 3.18c-1.1 0-2 .9-2 2 0 .77.46 1.44 1.1 1.77l-1.35 5.92c-.15-.02-.3-.05-.45-.05-.18 0-.35.03-.53.06L9.8 7.02c.64-.33 1.08-1 1.08-1.76 0-1.1-.9-2-2-2s-2 .9-2 2 .87 1.98 1.96 2l1.66 5.86c.17-.07.34-.12.52-.16-.18.04-.35.1-.52.16-.4.16-.76.4-1.1.68l-3.23-2.88c.15-.27.24-.58.24-.92 0-1.1-.9-2-2-2s-2 .9-2 2 .9 2 2 2c.4 0 .8-.12 1.1-.33l3.25 2.86c-.46.65-.73 1.44-.73 2.3 0 2.2 1.8 4 4 4s4-1.8 4-4c0-.84-.24-1.6-.67-2.24-.1-.2-.24-.34-.37-.48.13.14.26.28.37.45l3.24-2.9c.3.2.66.32 1.06.32 1.1 0 2-.9 2-2s-.9-2-2-2-2 .9-2 2c0 .33.1.66.25.94l-3.23 2.87c-.36-.3-.77-.56-1.22-.73l1.35-5.93c1.06-.03 1.92-.9 1.92-2s-.88-2-2-2zm0 1a1 1 0 0 1 1 1 1 1 0 0 1-1 1 1 1 0 0 1-1-1 1 1 0 0 1 1-1zm-5.82.08a1 1 0 0 1 1 1 1 1 0 0 1-1 1 1 1 0 0 1-1-1 1 1 0 0 1 1-1zM14.2 7.1c.02 0 .04 0 .05.02 0 0-.03 0-.05-.02zm-4.8.08l-.05.02c.02 0 .04 0 .06-.02zM4.4 9a1 1 0 0 1 1 1 1 1 0 0 1-1 1 1 1 0 0 1-1-1 1 1 0 0 1 1-1zm15.23.02a1 1 0 0 1 1 1 1 1 0 0 1-1 1 1 1 0 0 1-1-1 1 1 0 0 1 1-1zM5.9 11.32l-.03.03.03-.03zm6.1 3.5a2 2 0 0 1 2 2 2 2 0 0 1-2 2 2 2 0 0 1-2-2 2 2 0 0 1 2-2z"/></symbol><symbol viewBox="0 0 24 24" id="icon--triad"><path d="M0 0h24v24H0z" fill="none"/><path d="M12 3c-1.66 0-3 1.34-3 3 0 1.48 1.07 2.7 2.47 2.95v4.1c-.7.1-1.33.36-1.86.76l-1.8-1.9c.4-.5.66-1.1.66-1.8 0-1.64-1.34-3-3-3-1.65 0-3 1.36-3 3 0 1.67 1.35 3 3 3 .6 0 1.18-.2 1.65-.5l1.84 1.96c-.56.7-.9 1.55-.9 2.5 0 2.2 1.8 4 4 4s4-1.8 4-4c0-.96-.35-1.83-.92-2.52l1.96-2.1c.46.27 1 .44 1.57.44 1.66 0 3-1.33 3-3 0-1.64-1.34-3-3-3-1.65 0-3 1.36-3 3 0 .73.27 1.38.68 1.9l-1.9 2.1c-.54-.4-1.2-.67-1.9-.75V9c1.4-.28 2.5-1.5 2.5-3 0-1.66-1.33-3-3-3zm0 1.5A1.5 1.5 0 0 1 13.5 6 1.5 1.5 0 0 1 12 7.5 1.5 1.5 0 0 1 10.5 6 1.5 1.5 0 0 1 12 4.5zm6.6 3.8a1.5 1.5 0 0 1 1.5 1.5 1.5 1.5 0 0 1-1.5 1.5 1.5 1.5 0 0 1-1.5-1.5 1.5 1.5 0 0 1 1.5-1.5zm-13.2.26a1.5 1.5 0 0 1 1.5 1.5 1.5 1.5 0 0 1-1.5 1.5 1.5 1.5 0 0 1-1.5-1.5 1.5 1.5 0 0 1 1.5-1.5zM12 15a2 2 0 0 1 2 2 2 2 0 0 1-2 2 2 2 0 0 1-2-2 2 2 0 0 1 2-2z"/></symbol><symbol viewBox="0 0 24 24" id="icon--url"><path d="M12 2C6.48 2 2 6.48 2 12s4.48 10 10 10 10-4.48 10-10S17.52 2 12 2zm-1 17.93c-3.95-.49-7-3.85-7-7.93 0-.62.08-1.21.21-1.79L9 15v1c0 1.1.9 2 2 2v1.93zm6.9-2.54c-.26-.81-1-1.39-1.9-1.39h-1v-3c0-.55-.45-1-1-1H8v-2h2c.55 0 1-.45 1-1V7h2c1.1 0 2-.9 2-2v-.41c2.93 1.19 5 4.06 5 7.41 0 2.08-.8 3.97-2.1 5.39z"/></symbol></svg>