<svg xmlns="http://www.w3.org/2000/svg" style="width:0;height:0"><symbol viewBox="0 0 24 24" id="icon--progrees-circle"> <path d="m 12,4 c 4.4,0 8,3.6 8,8 0,4.4 -3.6,8 -8,8 C 7.6,20 4,16.4 4,12 3.3,11.4 2.7,11.2 2,12 2,17.5 6.5,22 12,22 17.5,22 22,17.5 22,12 22,6.5 17.5,2 12,2 11.2,2.7 11.4,3.3 12,4 Z"> <animateTransform xmlns="http://www.w3.org/2000/svg" attributeName="transform" type="rotate" values="0 12 12;180 12 12;360 12 12;" keyTimes="0;0.5;1" dur="1s" repeatCount="indefinite" begin="0s"/> </path> </symbol><symbol viewBox="0 0 24 24" id="icon--logo"> <sodipodi:namedview pagecolor="#ffffff" bordercolor="#666666" borderopacity="1" objecttolerance="10" gridtolerance="10" guidetolerance="10" inkscape:pageopacity="0" inkscape:pageshadow="2" inkscape:window-width="640" inkscape:window-height="480" id="icon--logo-namedview6" showgrid="false" inkscape:zoom="22.627417" inkscape:cx="15.578493" inkscape:cy="9.6068011" inkscape:current-layer="svg2"> <sodipodi:guide id="icon--logo-guide4136" orientation="0,24" position="0,0"/> <sodipodi:guide id="icon--logo-guide4138" orientation="-24,0" position="24,0"/> <sodipodi:guide id="icon--logo-guide4140" orientation="0,-24" position="24,24"/> <sodipodi:guide id="icon--logo-guide4142" orientation="24,0" position="0,24"/> <sodipodi:guide id="icon--logo-guide4151" position="27.895996,14.840148" orientation="0,24.0"/> <sodipodi:guide id="icon--logo-guide4153" position="0,9.16718427" orientation="0,24.0"/> <sodipodi:guide id="icon--logo-guide4155" position="14.83281573,0" orientation="24.0,0"/> <sodipodi:guide id="icon--logo-guide4157" position="9.16718427,0" orientation="24.0,0"/> <sodipodi:guide id="icon--logo-guide4159" position="0,24.0" orientation="0,24.0"/> <sodipodi:guide id="icon--logo-guide4161" position="24.0,0" orientation="0,24.0"/> <sodipodi:guide id="icon--logo-guide4163" position="0,24.0" orientation="24.0,0"/> <sodipodi:guide id="icon--logo-guide4165" position="24.0,0" orientation="24.0,0"/> </sodipodi:namedview>  <metadata id="icon--logo-metadata12"> <rdf:RDF> <cc:Work rdf:about=""> <dc:format>image/svg+xml</dc:format> <dc:type rdf:resource="http://purl.org/dc/dcmitype/StillImage"/> <dc:title/> </cc:Work> </rdf:RDF> </metadata> <path id="icon--logo-path4" d="M12 3c-4.97 0-9 4.03-9 9s4.03 9 9 9c.83 0 1.5-.67 1.5-1.5 0-.39-.15-.74-.39-1.01-.23-.26-.38-.61-.38-.99 0-.83.67-1.5 1.5-1.5H16c2.76 0 5-2.24 5-5 0-4.42-4.03-8-9-8zm-5.5 9c-.83 0-1.5-.67-1.5-1.5S5.67 9 6.5 9 8 9.67 8 10.5 7.33 12 6.5 12zm3-4C8.67 8 8 7.33 8 6.5S8.67 5 9.5 5s1.5.67 1.5 1.5S10.33 8 9.5 8zm5 0c-.83 0-1.5-.67-1.5-1.5S13.67 5 14.5 5s1.5.67 1.5 1.5S15.33 8 14.5 8zm3 4c-.83 0-1.5-.67-1.5-1.5S16.67 9 17.5 9s1.5.67 1.5 1.5-.67 1.5-1.5 1.5z"/> <path d="M 4.4238281 7.15625 C 3.5269292 8.5557884 3 10.214594 3 12 C 3 16.97 7.03 21 12 21 C 12.305026 21 12.587724 20.907616 12.824219 20.751953 L 7.2792969 11.777344 C 7.051832 11.916148 6.7866326 12 6.5 12 C 5.67 12 5 11.33 5 10.5 C 5 9.9631888 5.2825324 9.4974023 5.7050781 9.2324219 L 4.4238281 7.15625 z " id="icon--logo-path4184"/> <path d="M 12 3 C 8.8154062 3 6.0236091 4.6599209 4.4238281 7.15625 L 5.7050781 9.2324219 C 5.9358589 9.0876982 6.2068112 9 6.5 9 C 7.33 9 8 9.67 8 10.5 C 8 11.043367 7.7105004 11.514214 7.2792969 11.777344 L 12.824219 20.751953 C 13.231245 20.484044 13.5 20.024974 13.5 19.5 C 13.5 19.11 13.349375 18.760234 13.109375 18.490234 C 12.879375 18.230234 12.730469 17.88 12.730469 17.5 C 12.730469 16.67 13.400469 16 14.230469 16 L 14.832031 16 L 14.832031 7.9589844 C 14.724839 7.9832046 14.614641 8 14.5 8 C 13.67 8 13 7.33 13 6.5 C 13 5.67 13.67 5 14.5 5 C 14.614641 5 14.724839 5.0167954 14.832031 5.0410156 L 14.832031 3.4101562 C 13.940682 3.1474714 12.990475 3 12 3 z M 9.5 5 C 10.33 5 11 5.67 11 6.5 C 11 7.33 10.33 8 9.5 8 C 8.67 8 8 7.33 8 6.5 C 8 5.67 8.67 5 9.5 5 z " id="icon--logo-path4186"/> <path d="M 14.832031 3.4101562 L 14.832031 5.0410156 C 15.50091 5.1921492 16 5.7846412 16 6.5 C 16 7.2153588 15.50091 7.8078508 14.832031 7.9589844 L 14.832031 16 L 16 16 C 16.737403 16 17.432138 15.831912 18.0625 15.544922 L 20.642578 8.7871094 C 19.822382 6.2520675 17.635194 4.2362613 14.832031 3.4101562 z M 17.5 9 C 18.33 9 19 9.67 19 10.5 C 19 11.33 18.33 12 17.5 12 C 16.67 12 16 11.33 16 10.5 C 16 9.67 16.67 9 17.5 9 z " id="icon--logo-path4188"/> <path d="M 20.642578 8.7871094 L 18.0625 15.544922 C 19.791498 14.757746 21 13.022597 21 11 C 21 10.231057 20.870246 9.4907802 20.642578 8.7871094 z " id="icon--logo-path4190"/> </symbol><symbol viewBox="0 0 24 24" id="icon--add"> <path d="M0 0h24v24H0z" fill="none"/> <path d="M13 7h-2v4H7v2h4v4h2v-4h4v-2h-4V7zm-1-5C6.48 2 2 6.48 2 12s4.48 10 10 10 10-4.48 10-10S17.52 2 12 2zm0 18c-4.41 0-8-3.59-8-8s3.59-8 8-8 8 3.59 8 8-3.59 8-8 8z"/> </symbol><symbol viewBox="0 0 24 24" id="icon--github"><path fill="none" d="M0 0h24v24H0z"/><path fill-rule="evenodd" d="M12 2.5c-5.52 0-10 4.47-10 10 0 4.4 2.87 8.16 6.84 9.48.5.1.68-.2.68-.48v-1.7c-2.8.6-3.38-1.34-3.38-1.34C5.68 17.3 5.04 17 5.04 17c-.92-.62.06-.6.06-.6 1 .06 1.53 1.02 1.53 1.02.9 1.53 2.34 1.1 2.9.83.1-.65.36-1.1.64-1.34-2.22-.2-4.55-1.1-4.55-4.9 0-1.1.4-2 1.03-2.7-.1-.24-.45-1.25.1-2.63 0 0 .84-.27 2.75 1.03.8-.24 1.65-.35 2.5-.35.85 0 1.7.1 2.5.34 1.9-1.3 2.75-1.05 2.75-1.05.55 1.38.2 2.4.1 2.65.64.7 1.03 1.58 1.03 2.67 0 3.84-2.34 4.7-4.57 4.94.4.3.7.94.7 1.88v2.74c0 .28.2.6.7.5 3.98-1.33 6.8-5.08 6.8-9.5 0-5.5-4.44-10-10-10"/></symbol><symbol viewBox="0 0 24 24" id="icon--link"><path d="M16,6H13V7.9H16C18.26,7.9 20.1,9.73 20.1,12A4.1,4.1 0 0,1 16,16.1H13V18H16A6,6 0 0,0 22,12C22,8.68 19.31,6 16,6M3.9,12C3.9,9.73 5.74,7.9 8,7.9H11V6H8A6,6 0 0,0 2,12A6,6 0 0,0 8,18H11V16.1H8C5.74,16.1 3.9,14.26 3.9,12M8,13H16V11H8V13Z"/></symbol><symbol viewBox="0 0 24 24" id="icon--move"> <path d="M6.99 11L3 15l3.99 4v-3H14v-2H6.99v-3zM21 9l-3.99-4v3H10v2h7.01v3L21 9z"/> <path d="M0 0h24v24H0z" fill="none"/> </symbol><symbol viewBox="0 0 24 24" id="icon--palette"> <metadata id="icon--palette-metadata12"> <rdf:RDF> <cc:Work rdf:about=""> <dc:format>image/svg+xml</dc:format> <dc:type rdf:resource="http://purl.org/dc/dcmitype/StillImage"/> <dc:title/> </cc:Work> </rdf:RDF> </metadata> <path d="M12 3c-4.97 0-9 4.03-9 9s4.03 9 9 9c.83 0 1.5-.67 1.5-1.5 0-.39-.15-.74-.39-1.01-.23-.26-.38-.61-.38-.99 0-.83.67-1.5 1.5-1.5H16c2.76 0 5-2.24 5-5 0-4.42-4.03-8-9-8zm-5.5 9c-.83 0-1.5-.67-1.5-1.5S5.67 9 6.5 9 8 9.67 8 10.5 7.33 12 6.5 12zm3-4C8.67 8 8 7.33 8 6.5S8.67 5 9.5 5s1.5.67 1.5 1.5S10.33 8 9.5 8zm5 0c-.83 0-1.5-.67-1.5-1.5S13.67 5 14.5 5s1.5.67 1.5 1.5S15.33 8 14.5 8zm3 4c-.83 0-1.5-.67-1.5-1.5S16.67 9 17.5 9s1.5.67 1.5 1.5-.67 1.5-1.5 1.5z"/> </symbol><symbol viewBox="0 0 24 24" id="icon--remove"><path d="M12,20C7.59,20 4,16.41 4,12C4,7.59 7.59,4 12,4C16.41,4 20,7.59 20,12C20,16.41 16.41,20 12,20M12,2C6.47,2 2,6.47 2,12C2,17.53 6.47,22 12,22C17.53,22 22,17.53 22,12C22,6.47 17.53,2 12,2M14.59,8L12,10.59L9.41,8L8,9.41L10.59,12L8,14.59L9.41,16L12,13.41L14.59,16L16,14.59L13.41,12L16,9.41L14.59,8Z"/></symbol><symbol viewBox="0 0 24 24" id="icon--share"><path d="M18,16.08C17.24,16.08 16.56,16.38 16.04,16.85L8.91,12.7C8.96,12.47 9,12.24 9,12C9,11.76 8.96,11.53 8.91,11.3L15.96,7.19C16.5,7.69 17.21,8 18,8A3,3 0 0,0 21,5A3,3 0 0,0 18,2A3,3 0 0,0 15,5C15,5.24 15.04,5.47 15.09,5.7L8.04,9.81C7.5,9.31 6.79,9 6,9A3,3 0 0,0 3,12A3,3 0 0,0 6,15C6.79,15 7.5,14.69 8.04,14.19L15.16,18.34C15.11,18.55 15.08,18.77 15.08,19C15.08,20.61 16.39,21.91 18,21.91C19.61,21.91 20.92,20.61 20.92,19A2.92,2.92 0 0,0 18,16.08Z"/></symbol><symbol viewBox="0 0 24 24" id="icon--tetrad"><path fill="none" d="M0 0h24v24H0z"/><path d="M14.7 3.18c-1.1 0-2 .9-2 2 0 .77.46 1.44 1.1 1.77l-1.35 5.92c-.15-.02-.3-.05-.45-.05-.18 0-.35.03-.53.06L9.8 7.02c.64-.33 1.08-1 1.08-1.76 0-1.1-.9-2-2-2s-2 .9-2 2 .87 1.98 1.96 2l1.66 5.86c.17-.07.34-.12.52-.16-.18.04-.35.1-.52.16-.4.16-.76.4-1.1.68l-3.23-2.88c.15-.27.24-.58.24-.92 0-1.1-.9-2-2-2s-2 .9-2 2 .9 2 2 2c.4 0 .8-.12 1.1-.33l3.25 2.86c-.46.65-.73 1.44-.73 2.3 0 2.2 1.8 4 4 4s4-1.8 4-4c0-.84-.24-1.6-.67-2.24-.1-.2-.24-.34-.37-.48.13.14.26.28.37.45l3.24-2.9c.3.2.66.32 1.06.32 1.1 0 2-.9 2-2s-.9-2-2-2-2 .9-2 2c0 .33.1.66.25.94l-3.23 2.87c-.36-.3-.77-.56-1.22-.73l1.35-5.93c1.06-.03 1.92-.9 1.92-2s-.88-2-2-2zm0 1a1 1 0 0 1 1 1 1 1 0 0 1-1 1 1 1 0 0 1-1-1 1 1 0 0 1 1-1zm-5.82.08a1 1 0 0 1 1 1 1 1 0 0 1-1 1 1 1 0 0 1-1-1 1 1 0 0 1 1-1zM14.2 7.1c.02 0 .04 0 .05.02 0 0-.03 0-.05-.02zm-4.8.08l-.05.02c.02 0 .04 0 .06-.02zM4.4 9a1 1 0 0 1 1 1 1 1 0 0 1-1 1 1 1 0 0 1-1-1 1 1 0 0 1 1-1zm15.23.02a1 1 0 0 1 1 1 1 1 0 0 1-1 1 1 1 0 0 1-1-1 1 1 0 0 1 1-1zM5.9 11.32l-.03.03.03-.03zm6.1 3.5a2 2 0 0 1 2 2 2 2 0 0 1-2 2 2 2 0 0 1-2-2 2 2 0 0 1 2-2z"/></symbol><symbol viewBox="0 0 24 24" id="icon--triad"><path d="M0 0h24v24H0z" fill="none"/><path d="M12 3c-1.66 0-3 1.34-3 3 0 1.48 1.07 2.7 2.47 2.95v4.1c-.7.1-1.33.36-1.86.76l-1.8-1.9c.4-.5.66-1.1.66-1.8 0-1.64-1.34-3-3-3-1.65 0-3 1.36-3 3 0 1.67 1.35 3 3 3 .6 0 1.18-.2 1.65-.5l1.84 1.96c-.56.7-.9 1.55-.9 2.5 0 2.2 1.8 4 4 4s4-1.8 4-4c0-.96-.35-1.83-.92-2.52l1.96-2.1c.46.27 1 .44 1.57.44 1.66 0 3-1.33 3-3 0-1.64-1.34-3-3-3-1.65 0-3 1.36-3 3 0 .73.27 1.38.68 1.9l-1.9 2.1c-.54-.4-1.2-.67-1.9-.75V9c1.4-.28 2.5-1.5 2.5-3 0-1.66-1.33-3-3-3zm0 1.5A1.5 1.5 0 0 1 13.5 6 1.5 1.5 0 0 1 12 7.5 1.5 1.5 0 0 1 10.5 6 1.5 1.5 0 0 1 12 4.5zm6.6 3.8a1.5 1.5 0 0 1 1.5 1.5 1.5 1.5 0 0 1-1.5 1.5 1.5 1.5 0 0 1-1.5-1.5 1.5 1.5 0 0 1 1.5-1.5zm-13.2.26a1.5 1.5 0 0 1 1.5 1.5 1.5 1.5 0 0 1-1.5 1.5 1.5 1.5 0 0 1-1.5-1.5 1.5 1.5 0 0 1 1.5-1.5zM12 15a2 2 0 0 1 2 2 2 2 0 0 1-2 2 2 2 0 0 1-2-2 2 2 0 0 1 2-2z"/></symbol><symbol viewBox="0 0 24 24" id="icon--url"><path d="M12 2C6.48 2 2 6.48 2 12s4.48 10 10 10 10-4.48 10-10S17.52 2 12 2zm-1 17.93c-3.95-.49-7-3.85-7-7.93 0-.62.08-1.21.21-1.79L9 15v1c0 1.1.9 2 2 2v1.93zm6.9-2.54c-.26-.81-1-1.39-1.9-1.39h-1v-3c0-.55-.45-1-1-1H8v-2h2c.55 0 1-.45 1-1V7h2c1.1 0 2-.9 2-2v-.41c2.93 1.19 5 4.06 5 7.41 0 2.08-.8 3.97-2.1 5.39z"/></symbol></svg>