<svg xmlns="http://www.w3.org/2000/svg" width="24" height="24"><path fill="#8056f6" fill-rule="evenodd" d="M2.4 21.6l16-16-3.2-3.2h-3.17L8.8 8.8z"/><path fill="#198bc4" fill-rule="evenodd" d="M2.4 21.6l9.63-19.2H2.4z"/><path fill="#a919c4" fill-rule="evenodd" d="M2.4 21.6l19.2-11.1v5.96z"/><path fill="#8056f6" fill-rule="evenodd" d="M2.4 21.6l19.2-11.1V8.8l-3.2-3.2z"/><path fill="#a919c4" fill-rule="evenodd" d="M2.4 21.6l19.2-5.14v5.14z"/><path fill="#fff" fill-rule="evenodd" d="M2.4 2.4l19.2 19.2V8.8l-6.4-6.4z" opacity=".3"/><path fill="#a0d7e1" fill-rule="evenodd" d="M11.84 2.4l-3.3 6.16L2.4 21.6 9.17 9.1z"/><path fill="#c8b9f0" fill-rule="evenodd" d="M18.34 5.77l-6.58 6L2.4 21.6l9.98-9.27z"/><path fill="#f5c8e6" fill-rule="evenodd" d="M21.56 10.63l-7.22 3.74L2.4 21.6l12.57-6.7zm-.08 5.8l-4.24.84L2.4 21.6l15.47-3.8z"/></svg>