<?xml version="1.0" encoding="UTF-8" standalone="no"?>
<svg
   xmlns:dc="http://purl.org/dc/elements/1.1/"
   xmlns:cc="http://creativecommons.org/ns#"
   xmlns:rdf="http://www.w3.org/1999/02/22-rdf-syntax-ns#"
   xmlns:svg="http://www.w3.org/2000/svg"
   xmlns="http://www.w3.org/2000/svg"
   xmlns:sodipodi="http://sodipodi.sourceforge.net/DTD/sodipodi-0.dtd"
   xmlns:inkscape="http://www.inkscape.org/namespaces/inkscape"
   version="1.1"
   id="svg2"
   width="24"
   viewBox="0 0 24 24"
   height="24"
   fill="#000000"
   inkscape:version="0.91 r13725"
   sodipodi:docname="logo.svg">
  <sodipodi:namedview
     pagecolor="#ffffff"
     bordercolor="#666666"
     borderopacity="1"
     objecttolerance="10"
     gridtolerance="10"
     guidetolerance="10"
     inkscape:pageopacity="0"
     inkscape:pageshadow="2"
     inkscape:window-width="640"
     inkscape:window-height="480"
     id="namedview6"
     showgrid="false"
     inkscape:zoom="22.627417"
     inkscape:cx="15.578493"
     inkscape:cy="9.6068011"
     inkscape:current-layer="svg2">
    <sodipodi:guide
       id="guide4136"
       orientation="0,24"
       position="0,0" />
    <sodipodi:guide
       id="guide4138"
       orientation="-24,0"
       position="24,0" />
    <sodipodi:guide
       id="guide4140"
       orientation="0,-24"
       position="24,24" />
    <sodipodi:guide
       id="guide4142"
       orientation="24,0"
       position="0,24" />
    <sodipodi:guide
       id="guide4151"
       position="27.895996,14.840148"
       orientation="0,24.0" />
    <sodipodi:guide
       id="guide4153"
       position="0,9.16718427"
       orientation="0,24.0" />
    <sodipodi:guide
       id="guide4155"
       position="14.83281573,0"
       orientation="24.0,0" />
    <sodipodi:guide
       id="guide4157"
       position="9.16718427,0"
       orientation="24.0,0" />
    <sodipodi:guide
       id="guide4159"
       position="0,24.0"
       orientation="0,24.0" />
    <sodipodi:guide
       id="guide4161"
       position="24.0,0"
       orientation="0,24.0" />
    <sodipodi:guide
       id="guide4163"
       position="0,24.0"
       orientation="24.0,0" />
    <sodipodi:guide
       id="guide4165"
       position="24.0,0"
       orientation="24.0,0" />
  </sodipodi:namedview>
  <defs
     id="defs8" />
  <metadata
     id="metadata12">
    <rdf:RDF>
      <cc:Work
         rdf:about="">
        <dc:format>image/svg+xml</dc:format>
        <dc:type
           rdf:resource="http://purl.org/dc/dcmitype/StillImage" />
        <dc:title />
      </cc:Work>
    </rdf:RDF>
  </metadata>
  <path
     id="path4"
     d="M12 3c-4.97 0-9 4.03-9 9s4.03 9 9 9c.83 0 1.5-.67 1.5-1.5 0-.39-.15-.74-.39-1.01-.23-.26-.38-.61-.38-.99 0-.83.67-1.5 1.5-1.5H16c2.76 0 5-2.24 5-5 0-4.42-4.03-8-9-8zm-5.5 9c-.83 0-1.5-.67-1.5-1.5S5.67 9 6.5 9 8 9.67 8 10.5 7.33 12 6.5 12zm3-4C8.67 8 8 7.33 8 6.5S8.67 5 9.5 5s1.5.67 1.5 1.5S10.33 8 9.5 8zm5 0c-.83 0-1.5-.67-1.5-1.5S13.67 5 14.5 5s1.5.67 1.5 1.5S15.33 8 14.5 8zm3 4c-.83 0-1.5-.67-1.5-1.5S16.67 9 17.5 9s1.5.67 1.5 1.5-.67 1.5-1.5 1.5z"
     style="stroke:none;fill:#3e2e4e;fill-opacity:1" />
  <path
     style="fill:#1f585f;fill-rule:evenodd;stroke:none;stroke-width:1px;stroke-linecap:butt;stroke-linejoin:miter;stroke-opacity:1;fill-opacity:0.94117647"
     d="M 4.4238281 7.15625 C 3.5269292 8.5557884 3 10.214594 3 12 C 3 16.97 7.03 21 12 21 C 12.305026 21 12.587724 20.907616 12.824219 20.751953 L 7.2792969 11.777344 C 7.051832 11.916148 6.7866326 12 6.5 12 C 5.67 12 5 11.33 5 10.5 C 5 9.9631888 5.2825324 9.4974023 5.7050781 9.2324219 L 4.4238281 7.15625 z "
     id="path4184" />
  <path
     style="fill:#3e2e4e;fill-rule:evenodd;stroke:none;stroke-width:1px;stroke-linecap:butt;stroke-linejoin:miter;stroke-opacity:1;fill-opacity:1"
     d="M 12 3 C 8.8154062 3 6.0236091 4.6599209 4.4238281 7.15625 L 5.7050781 9.2324219 C 5.9358589 9.0876982 6.2068112 9 6.5 9 C 7.33 9 8 9.67 8 10.5 C 8 11.043367 7.7105004 11.514214 7.2792969 11.777344 L 12.824219 20.751953 C 13.231245 20.484044 13.5 20.024974 13.5 19.5 C 13.5 19.11 13.349375 18.760234 13.109375 18.490234 C 12.879375 18.230234 12.730469 17.88 12.730469 17.5 C 12.730469 16.67 13.400469 16 14.230469 16 L 14.832031 16 L 14.832031 7.9589844 C 14.724839 7.9832046 14.614641 8 14.5 8 C 13.67 8 13 7.33 13 6.5 C 13 5.67 13.67 5 14.5 5 C 14.614641 5 14.724839 5.0167954 14.832031 5.0410156 L 14.832031 3.4101562 C 13.940682 3.1474714 12.990475 3 12 3 z M 9.5 5 C 10.33 5 11 5.67 11 6.5 C 11 7.33 10.33 8 9.5 8 C 8.67 8 8 7.33 8 6.5 C 8 5.67 8.67 5 9.5 5 z "
     id="path4186" />
  <path
     style="fill:#50202f;fill-rule:evenodd;stroke:none;stroke-width:1px;stroke-linecap:butt;stroke-linejoin:miter;stroke-opacity:1;fill-opacity:1"
     d="M 14.832031 3.4101562 L 14.832031 5.0410156 C 15.50091 5.1921492 16 5.7846412 16 6.5 C 16 7.2153588 15.50091 7.8078508 14.832031 7.9589844 L 14.832031 16 L 16 16 C 16.737403 16 17.432138 15.831912 18.0625 15.544922 L 20.642578 8.7871094 C 19.822382 6.2520675 17.635194 4.2362613 14.832031 3.4101562 z M 17.5 9 C 18.33 9 19 9.67 19 10.5 C 19 11.33 18.33 12 17.5 12 C 16.67 12 16 11.33 16 10.5 C 16 9.67 16.67 9 17.5 9 z "
     id="path4188" />
  <path
     style="fill:#604b1f;fill-rule:evenodd;stroke:none;stroke-width:1px;stroke-linecap:butt;stroke-linejoin:miter;stroke-opacity:1;fill-opacity:1"
     d="M 20.642578 8.7871094 L 18.0625 15.544922 C 19.791498 14.757746 21 13.022597 21 11 C 21 10.231057 20.870246 9.4907802 20.642578 8.7871094 z "
     id="path4190" />
</svg>
