<?xml version="1.0" standalone="no"?>
<!DOCTYPE svg PUBLIC "-//W3C//DTD SVG 20010904//EN"
 "http://www.w3.org/TR/2001/REC-SVG-20010904/DTD/svg10.dtd">
<svg version="1.0" xmlns="http://www.w3.org/2000/svg"
 width="700.000000pt" height="700.000000pt" viewBox="0 0 700.000000 700.000000"
 preserveAspectRatio="xMidYMid meet">
<metadata>
Created by potrace 1.11, written by Peter Selinger 2001-2013
</metadata>
<g transform="translate(0.000000,700.000000) scale(0.100000,-0.100000)"
fill="#000000" stroke="none">
<path d="M3188 6105 c-1212 -153 -2152 -1098 -2293 -2304 -19 -161 -19 -441 0
-602 141 -1211 1093 -2163 2304 -2304 187 -22 363 -20 437 5 158 54 270 188
293 350 17 127 -15 233 -109 360 -88 119 -120 229 -101 348 26 165 132 292
288 349 61 22 76 23 346 23 314 1 483 10 602 35 597 123 1053 599 1150 1200
19 121 19 351 0 497 -124 944 -878 1724 -1911 1978 -224 55 -362 72 -644 75
-176 3 -288 0 -362 -10z m-290 -583 c316 -99 412 -493 178 -728 -148 -147
-379 -167 -553 -48 -300 206 -224 670 126 778 66 21 178 19 249 -2z m1449 3
c166 -49 286 -186 312 -355 41 -263 -162 -500 -428 -500 -126 0 -221 39 -307
124 -134 135 -168 322 -89 494 70 153 221 250 391 251 39 1 93 -6 121 -14z
m-2321 -1171 c127 -36 238 -146 285 -282 23 -67 25 -186 4 -255 -64 -212 -269
-343 -484 -310 -255 40 -423 293 -357 538 65 246 303 378 552 309z m3209 -1
c227 -71 356 -316 285 -544 -95 -308 -474 -408 -713 -189 -90 83 -137 191
-137 321 0 293 283 499 565 412z"/>
</g>
</svg>
