<svg xmlns="http://www.w3.org/2000/svg" width="24" height="24"><path fill="none" d="M0 0h24v24H0z"/><path fill-rule="evenodd" d="M12 2.5c-5.52 0-10 4.47-10 10 0 4.4 2.87 8.16 6.84 9.48.5.1.68-.2.68-.48v-1.7c-2.8.6-3.38-1.34-3.38-1.34C5.68 17.3 5.04 17 5.04 17c-.92-.62.06-.6.06-.6 1 .06 1.53 1.02 1.53 1.02.9 1.53 2.34 1.1 2.9.83.1-.65.36-1.1.64-1.34-2.22-.2-4.55-1.1-4.55-4.9 0-1.1.4-2 1.03-2.7-.1-.24-.45-1.25.1-2.63 0 0 .84-.27 2.75 1.03.8-.24 1.65-.35 2.5-.35.85 0 1.7.1 2.5.34 1.9-1.3 2.75-1.05 2.75-1.05.55 1.38.2 2.4.1 2.65.64.7 1.03 1.58 1.03 2.67 0 3.84-2.34 4.7-4.57 4.94.4.3.7.94.7 1.88v2.74c0 .28.2.6.7.5 3.98-1.33 6.8-5.08 6.8-9.5 0-5.5-4.44-10-10-10"/></svg>