<svg xmlns="http://www.w3.org/2000/svg" width="24" height="24"><path fill="none" d="M0 0h24v24H0z"/><path d="M14.7 3.18c-1.1 0-2 .9-2 2 0 .77.46 1.44 1.1 1.77l-1.35 5.92c-.15-.02-.3-.05-.45-.05-.18 0-.35.03-.53.06L9.8 7.02c.64-.33 1.08-1 1.08-1.76 0-1.1-.9-2-2-2s-2 .9-2 2 .87 1.98 1.96 2l1.66 5.86c.17-.07.34-.12.52-.16-.18.04-.35.1-.52.16-.4.16-.76.4-1.1.68l-3.23-2.88c.15-.27.24-.58.24-.92 0-1.1-.9-2-2-2s-2 .9-2 2 .9 2 2 2c.4 0 .8-.12 1.1-.33l3.25 2.86c-.46.65-.73 1.44-.73 2.3 0 2.2 1.8 4 4 4s4-1.8 4-4c0-.84-.24-1.6-.67-2.24-.1-.2-.24-.34-.37-.48.13.14.26.28.37.45l3.24-2.9c.3.2.66.32 1.06.32 1.1 0 2-.9 2-2s-.9-2-2-2-2 .9-2 2c0 .33.1.66.25.94l-3.23 2.87c-.36-.3-.77-.56-1.22-.73l1.35-5.93c1.06-.03 1.92-.9 1.92-2s-.88-2-2-2zm0 1a1 1 0 0 1 1 1 1 1 0 0 1-1 1 1 1 0 0 1-1-1 1 1 0 0 1 1-1zm-5.82.08a1 1 0 0 1 1 1 1 1 0 0 1-1 1 1 1 0 0 1-1-1 1 1 0 0 1 1-1zM14.2 7.1c.02 0 .04 0 .05.02 0 0-.03 0-.05-.02zm-4.8.08l-.05.02c.02 0 .04 0 .06-.02zM4.4 9a1 1 0 0 1 1 1 1 1 0 0 1-1 1 1 1 0 0 1-1-1 1 1 0 0 1 1-1zm15.23.02a1 1 0 0 1 1 1 1 1 0 0 1-1 1 1 1 0 0 1-1-1 1 1 0 0 1 1-1zM5.9 11.32l-.03.03.03-.03zm6.1 3.5a2 2 0 0 1 2 2 2 2 0 0 1-2 2 2 2 0 0 1-2-2 2 2 0 0 1 2-2z"/></svg>