<svg viewBox="0 0 24 24" xmlns="http://www.w3.org/2000/svg"><path d="M0 0h24v24H0z" fill="none"/><path d="M12 3c-1.66 0-3 1.34-3 3 0 1.48 1.07 2.7 2.47 2.95v4.1c-.7.1-1.33.36-1.86.76l-1.8-1.9c.4-.5.66-1.1.66-1.8 0-1.64-1.34-3-3-3-1.65 0-3 1.36-3 3 0 1.67 1.35 3 3 3 .6 0 1.18-.2 1.65-.5l1.84 1.96c-.56.7-.9 1.55-.9 2.5 0 2.2 1.8 4 4 4s4-1.8 4-4c0-.96-.35-1.83-.92-2.52l1.96-2.1c.46.27 1 .44 1.57.44 1.66 0 3-1.33 3-3 0-1.64-1.34-3-3-3-1.65 0-3 1.36-3 3 0 .73.27 1.38.68 1.9l-1.9 2.1c-.54-.4-1.2-.67-1.9-.75V9c1.4-.28 2.5-1.5 2.5-3 0-1.66-1.33-3-3-3zm0 1.5A1.5 1.5 0 0 1 13.5 6 1.5 1.5 0 0 1 12 7.5 1.5 1.5 0 0 1 10.5 6 1.5 1.5 0 0 1 12 4.5zm6.6 3.8a1.5 1.5 0 0 1 1.5 1.5 1.5 1.5 0 0 1-1.5 1.5 1.5 1.5 0 0 1-1.5-1.5 1.5 1.5 0 0 1 1.5-1.5zm-13.2.26a1.5 1.5 0 0 1 1.5 1.5 1.5 1.5 0 0 1-1.5 1.5 1.5 1.5 0 0 1-1.5-1.5 1.5 1.5 0 0 1 1.5-1.5zM12 15a2 2 0 0 1 2 2 2 2 0 0 1-2 2 2 2 0 0 1-2-2 2 2 0 0 1 2-2z"/></svg>